<?xml version="1.0" encoding="UTF-8"?>
<!-- Generator: CustomSymbols v2.6.4.43 by @serious_bret https://bretlester.com/app_content/CustomSymbols/ -->
<!-- Guides: Left/Right 0.0/0.0 Cap/Base 0.003/0.003 -->
<!-- Settings: RefScale 1.0 Min/Max Stroke Scales 0.5/2.21 -->
<!DOCTYPE svg
PUBLIC "-//W3C//DTD SVG 1.1//EN"
       "http://www.w3.org/Graphics/SVG/1.1/DTD/svg11.dtd">
<svg version="1.1" xmlns="http://www.w3.org/2000/svg" xmlns:xlink="http://www.w3.org/1999/xlink" width="3300" height="2200">
<![CDATA[<svg width="33" height="32" viewBox="0 0 33 32" fill="none" xmlns="http://www.w3.org/2000/svg">
<path fill-rule="evenodd" clip-rule="evenodd" d="M16.2216 26.5998L8.15157 30.8498C7.79458 31.0335 7.36445 30.9997 7.0405 30.7626C6.71654 30.5254 6.55437 30.1256 6.62157 29.7298L8.16157 20.7298C8.21809 20.3846 8.10233 20.0336 7.85157 19.7898L1.32157 13.4698C1.03134 13.1879 0.92684 12.7655 1.05222 12.3808C1.1776 11.9962 1.511 11.7164 1.91157 11.6598L10.9116 10.3498C11.2582 10.3019 11.5582 10.0844 11.7116 9.76979L15.7116 1.58979C15.8904 1.22857 16.2585 1 16.6616 1C17.0646 1 17.4328 1.22857 17.6116 1.58979L21.6116 9.76979C21.7703 10.0798 22.0676 10.2954 22.4116 10.3498L31.4116 11.6598C31.8316 11.6788 32.2006 11.9442 32.3522 12.3364C32.5039 12.7285 32.4095 13.1731 32.1116 13.4698L25.5816 19.8298C25.3344 20.0756 25.2225 20.4263 25.2816 20.7698L26.8216 29.7698C26.8835 30.1663 26.7183 30.5642 26.3937 30.8003C26.0691 31.0363 25.6397 31.0709 25.2816 30.8898L17.2116 26.6398C16.9075 26.4669 16.5386 26.452 16.2216 26.5998V26.5998Z" stroke="#B3B3B3" stroke-linecap="round" stroke-linejoin="round"/>
</svg>
]]>
 <g id="Notes">
  <rect height="2200" id="artboard" style="fill:white;opacity:1" width="3300" x="0" y="0"/>
  <line id="" style="fill:none;stroke:black;opacity:1;stroke-width:0.5;" x1="263" x2="3036" y1="292" y2="292"/>
  <text id="reftext1" style="stroke:none;fill:black;font-family:-apple-system,&quot;SF Pro Display&quot;,&quot;SF Pro Text&quot;,Helvetica,sans-serif;font-weight:bold;" transform="matrix(1 0 0 1 263 322)">Weight/Scale Variations</text>
  <text id="reftext2" style="stroke:none;fill:black;font-family:-apple-system,&quot;SF Pro Display&quot;,&quot;SF Pro Text&quot;,Helvetica,sans-serif;text-anchor:middle;" transform="matrix(1 0 0 1 559.711 322)">Ultralight</text>
  <text style="stroke:none;fill:black;font-family:-apple-system,&quot;SF Pro Display&quot;,&quot;SF Pro Text&quot;,Helvetica,sans-serif;text-anchor:middle;" transform="matrix(1 0 0 1 856.422 322)">Thin</text>
  <text style="stroke:none;fill:black;font-family:-apple-system,&quot;SF Pro Display&quot;,&quot;SF Pro Text&quot;,Helvetica,sans-serif;text-anchor:middle;" transform="matrix(1 0 0 1 1153.13 322)">Light</text>
  <text style="stroke:none;fill:black;font-family:-apple-system,&quot;SF Pro Display&quot;,&quot;SF Pro Text&quot;,Helvetica,sans-serif;text-anchor:middle;" transform="matrix(1 0 0 1 1449.84 322)">Regular</text>
  <text style="stroke:none;fill:black;font-family:-apple-system,&quot;SF Pro Display&quot;,&quot;SF Pro Text&quot;,Helvetica,sans-serif;text-anchor:middle;" transform="matrix(1 0 0 1 1746.56 322)">Medium</text>
  <text style="stroke:none;fill:black;font-family:-apple-system,&quot;SF Pro Display&quot;,&quot;SF Pro Text&quot;,Helvetica,sans-serif;text-anchor:middle;" transform="matrix(1 0 0 1 2043.27 322)">Semibold</text>
  <text style="stroke:none;fill:black;font-family:-apple-system,&quot;SF Pro Display&quot;,&quot;SF Pro Text&quot;,Helvetica,sans-serif;text-anchor:middle;" transform="matrix(1 0 0 1 2339.98 322)">Bold</text>
  <text style="stroke:none;fill:black;font-family:-apple-system,&quot;SF Pro Display&quot;,&quot;SF Pro Text&quot;,Helvetica,sans-serif;text-anchor:middle;" transform="matrix(1 0 0 1 2636.69 322)">Heavy</text>
  <text style="stroke:none;fill:black;font-family:-apple-system,&quot;SF Pro Display&quot;,&quot;SF Pro Text&quot;,Helvetica,sans-serif;text-anchor:middle;" transform="matrix(1 0 0 1 2933.4 322)">Black</text>
  <line id="" style="fill:none;stroke:black;opacity:1;stroke-width:0.5;" x1="263" x2="3036" y1="1903" y2="1903"/>
  <g id="" transform="matrix(1 0 0 1 263 1933)">
   <path d="M9.24805 0.830078C13.5547 0.830078 17.1387-2.74414 17.1387-7.05078C17.1387-11.3574 13.5449-14.9316 9.23828-14.9316C4.94141-14.9316 1.36719-11.3574 1.36719-7.05078C1.36719-2.74414 4.95117 0.830078 9.24805 0.830078ZM9.24805-0.654297C5.70312-0.654297 2.87109-3.49609 2.87109-7.05078C2.87109-10.6055 5.69336-13.4473 9.23828-13.4473C12.793-13.4473 15.6348-10.6055 15.6445-7.05078C15.6543-3.49609 12.8027-0.654297 9.24805-0.654297ZM6.39648-6.31836L8.50586-6.31836L8.50586-4.19922C8.50586-3.75977 8.79883-3.45703 9.22852-3.45703C9.67773-3.45703 9.9707-3.75977 9.9707-4.19922L9.9707-6.31836L12.0996-6.31836C12.5391-6.31836 12.8418-6.61133 12.8418-7.04102C12.8418-7.48047 12.5391-7.7832 12.0996-7.7832L9.9707-7.7832L9.9707-9.89258C9.9707-10.3418 9.67773-10.6445 9.22852-10.6445C8.79883-10.6445 8.50586-10.3418 8.50586-9.89258L8.50586-7.7832L6.39648-7.7832C5.94727-7.7832 5.64453-7.48047 5.64453-7.04102C5.64453-6.61133 5.94727-6.31836 6.39648-6.31836Z"/>
  </g>
  <g id="" transform="matrix(1 0 0 1 281.506 1933)">
   <path d="M11.709 2.91016C17.1582 2.91016 21.6699-1.61133 21.6699-7.05078C21.6699-12.5 17.1484-17.0117 11.6992-17.0117C6.25977-17.0117 1.74805-12.5 1.74805-7.05078C1.74805-1.61133 6.26953 2.91016 11.709 2.91016ZM11.709 1.25C7.09961 1.25 3.41797-2.44141 3.41797-7.05078C3.41797-11.6602 7.08984-15.3516 11.6992-15.3516C16.3086-15.3516 20-11.6602 20.0098-7.05078C20.0195-2.44141 16.3184 1.25 11.709 1.25ZM7.98828-6.23047L10.8789-6.23047L10.8789-3.32031C10.8789-2.83203 11.2109-2.5 11.6895-2.5C12.1777-2.5 12.5195-2.83203 12.5195-3.32031L12.5195-6.23047L15.4297-6.23047C15.918-6.23047 16.25-6.5625 16.25-7.04102C16.25-7.5293 15.918-7.87109 15.4297-7.87109L12.5195-7.87109L12.5195-10.7617C12.5195-11.2695 12.1777-11.6016 11.6895-11.6016C11.2109-11.6016 10.8789-11.2598 10.8789-10.7617L10.8789-7.87109L7.98828-7.87109C7.48047-7.87109 7.14844-7.5293 7.14844-7.04102C7.14844-6.5625 7.49023-6.23047 7.98828-6.23047Z"/>
  </g>
  <g id="" transform="matrix(1 0 0 1 304.924 1933)">
   <path d="M14.9707 5.66406C21.9336 5.66406 27.6953-0.0976562 27.6953-7.05078C27.6953-14.0137 21.9238-19.7754 14.9609-19.7754C8.00781-19.7754 2.25586-14.0137 2.25586-7.05078C2.25586-0.0976562 8.01758 5.66406 14.9707 5.66406ZM14.9707 3.84766C8.93555 3.84766 4.08203-1.01562 4.08203-7.05078C4.08203-13.0957 8.92578-17.9492 14.9609-17.9492C21.0059-17.9492 25.8594-13.0957 25.8691-7.05078C25.8789-1.01562 21.0156 3.84766 14.9707 3.84766ZM10.0586-6.14258L14.0625-6.14258L14.0625-2.12891C14.0625-1.5918 14.4336-1.2207 14.9512-1.2207C15.4883-1.2207 15.8594-1.5918 15.8594-2.12891L15.8594-6.14258L19.8828-6.14258C20.4102-6.14258 20.791-6.51367 20.791-7.03125C20.791-7.56836 20.4199-7.94922 19.8828-7.94922L15.8594-7.94922L15.8594-11.9531C15.8594-12.5098 15.4883-12.8809 14.9512-12.8809C14.4336-12.8809 14.0625-12.5 14.0625-11.9531L14.0625-7.94922L10.0586-7.94922C9.50195-7.94922 9.13086-7.56836 9.13086-7.03125C9.13086-6.51367 9.51172-6.14258 10.0586-6.14258Z"/>
  </g>
  <text style="stroke:none;fill:black;font-family:-apple-system,&quot;SF Pro Display&quot;,&quot;SF Pro Text&quot;,Helvetica,sans-serif;font-weight:bold;" transform="matrix(1 0 0 1 263 1953)">Design Variations</text>
  <text style="stroke:none;fill:black;font-family:-apple-system,&quot;SF Pro Display&quot;,&quot;SF Pro Text&quot;,Helvetica,sans-serif;" transform="matrix(1 0 0 1 263 1971)">Symbols are supported in up to nine weights and three scales.</text>
  <text style="stroke:none;fill:black;font-family:-apple-system,&quot;SF Pro Display&quot;,&quot;SF Pro Text&quot;,Helvetica,sans-serif;" transform="matrix(1 0 0 1 263 1989)">For optimal layout with text and other symbols, vertically align</text>
  <text style="stroke:none;fill:black;font-family:-apple-system,&quot;SF Pro Display&quot;,&quot;SF Pro Text&quot;,Helvetica,sans-serif;" transform="matrix(1 0 0 1 263 2007)">symbols with the adjacent text.</text>
  <line id="" style="fill:none;stroke:#00AEEF;stroke-width:0.5;opacity:1.0;" x1="776" x2="776" y1="1919" y2="1933"/>
  <g id="" transform="matrix(1 0 0 1 776 1933)">
   <path d="M3.31055 0.126953C3.82812 0.126953 4.08203-0.0683594 4.26758-0.605469L5.52734-4.0625L11.2891-4.0625L12.5488-0.605469C12.7344-0.0683594 12.9883 0.126953 13.4961 0.126953C14.0137 0.126953 14.3457-0.185547 14.3457-0.673828C14.3457-0.839844 14.3164-0.986328 14.2383-1.20117L9.6582-13.3887C9.43359-13.9941 9.0332-14.2871 8.4082-14.2871C7.80273-14.2871 7.39258-13.9941 7.17773-13.3984L2.59766-1.19141C2.51953-0.976562 2.49023-0.830078 2.49023-0.664062C2.49023-0.175781 2.80273 0.126953 3.31055 0.126953ZM6.00586-5.53711L8.37891-12.1094L8.42773-12.1094L10.8008-5.53711Z"/>
  </g>
  <line id="" style="fill:none;stroke:#00AEEF;stroke-width:0.5;opacity:1.0;" x1="792.836" x2="792.836" y1="1919" y2="1933"/>
  <text style="stroke:none;fill:black;font-family:-apple-system,&quot;SF Pro Display&quot;,&quot;SF Pro Text&quot;,Helvetica,sans-serif;font-weight:bold;" transform="matrix(1 0 0 1 776 1953)">Margins</text>
  <text style="stroke:none;fill:black;font-family:-apple-system,&quot;SF Pro Display&quot;,&quot;SF Pro Text&quot;,Helvetica,sans-serif;" transform="matrix(1 0 0 1 776 1971)">Leading and trailing margins on the left and right side of each symbol</text>
  <text style="stroke:none;fill:black;font-family:-apple-system,&quot;SF Pro Display&quot;,&quot;SF Pro Text&quot;,Helvetica,sans-serif;" transform="matrix(1 0 0 1 776 1989)">can be adjusted by modifying the x-location of the margin guidelines.</text>
  <text style="stroke:none;fill:black;font-family:-apple-system,&quot;SF Pro Display&quot;,&quot;SF Pro Text&quot;,Helvetica,sans-serif;" transform="matrix(1 0 0 1 776 2007)">Modifications are automatically applied proportionally to all</text>
  <text style="stroke:none;fill:black;font-family:-apple-system,&quot;SF Pro Display&quot;,&quot;SF Pro Text&quot;,Helvetica,sans-serif;" transform="matrix(1 0 0 1 776 2025)">scales and weights.</text>
  <g id="" transform="matrix(1 0 0 1 1289 1933)">
   <path d="M2.8418 1.86523L4.54102 3.57422C5.40039 4.44336 6.38672 4.38477 7.31445 3.35938L17.4902-7.85156C17.7539-7.76367 18.0273-7.7832 18.3398-7.8418L19.4043-8.03711L20.0684-7.36328L20.0293-6.80664C19.9902-6.30859 20.1172-5.92773 20.6055-5.44922L21.3672-4.70703C21.8457-4.22852 22.4609-4.19922 22.9297-4.66797L25.8398-7.58789C26.3086-8.05664 26.2891-8.65234 25.8105-9.13086L25.0391-9.89258C24.5605-10.3711 24.1895-10.5273 23.7109-10.4883L23.1348-10.4395L22.4902-11.0742L22.7344-12.1973C22.8613-12.7637 22.7051-13.2031 22.1191-13.7891L19.9219-15.9766C16.582-19.2969 12.1484-19.2188 9.25781-16.3281C8.83789-15.918 8.80859-15.3418 9.04297-14.9512C9.27734-14.5898 9.73633-14.3555 10.3809-14.5215C11.8457-14.8633 13.3691-14.9219 14.7949-13.9844L14.209-12.5293C14.0137-12.0508 13.9844-11.6504 14.1113-11.2891L3.04688-0.898438C2.06055 0.0195312 1.98242 0.996094 2.8418 1.86523ZM10.752-15.957C13.1836-17.7344 16.4746-17.4316 18.7012-15.2051L21.1328-12.793C21.3672-12.5586 21.4062-12.373 21.3379-12.0312L21.0156-10.5469L22.5195-9.0625L23.5059-9.12109C23.7598-9.13086 23.8379-9.11133 24.0332-8.91602L24.6094-8.33984L22.168-5.89844L21.5918-6.47461C21.3965-6.66992 21.3672-6.74805 21.377-7.01172L21.4453-7.98828L19.9512-9.47266L18.4277-9.21875C18.1055-9.15039 17.959-9.17969 17.7148-9.41406L15.7129-11.416C15.459-11.6504 15.4297-11.8164 15.5859-12.1875L16.4648-14.2773C14.9023-15.7324 12.8711-16.3574 10.8398-15.7617C10.6836-15.7227 10.625-15.8496 10.752-15.957ZM5.27344 2.30469L4.10156 1.14258C3.63281 0.683594 3.74023 0.341797 4.14062-0.0195312L14.9512-10.1953L16.416-8.71094L6.42578 2.27539C6.07422 2.67578 5.74219 2.77344 5.27344 2.30469Z"/>
  </g>
  <text style="stroke:none;fill:black;font-family:-apple-system,&quot;SF Pro Display&quot;,&quot;SF Pro Text&quot;,Helvetica,sans-serif;font-weight:bold;" transform="matrix(1 0 0 1 1289 1953)">Exporting</text>
  <text style="stroke:none;fill:black;font-family:-apple-system,&quot;SF Pro Display&quot;,&quot;SF Pro Text&quot;,Helvetica,sans-serif;" transform="matrix(1 0 0 1 1289 1971)">Symbols should be outlined when exporting to ensure the</text>
  <text style="stroke:none;fill:black;font-family:-apple-system,&quot;SF Pro Display&quot;,&quot;SF Pro Text&quot;,Helvetica,sans-serif;" transform="matrix(1 0 0 1 1289 1989)">design is preserved when submitting to Xcode.</text>
  <text id="template-version" style="stroke:none;fill:black;font-family:-apple-system,&quot;SF Pro Display&quot;,&quot;SF Pro Text&quot;,Helvetica,sans-serif;text-anchor:end;" transform="matrix(1 0 0 1 3036 1933)">Template v.2.0</text>
  <text style="stroke:none;fill:black;font-family:-apple-system,&quot;SF Pro Display&quot;,&quot;SF Pro Text&quot;,Helvetica,sans-serif;text-anchor:end;" transform="matrix(1 0 0 1 3036 1951)">Requires Xcode 12 or greater</text>
  <text style="stroke:none;fill:black;font-family:-apple-system,&quot;SF Pro Display&quot;,&quot;SF Pro Text&quot;,Helvetica,sans-serif;" transform="matrix(1 0 0 1 263 726)">Small</text>
  <text style="stroke:none;fill:black;font-family:-apple-system,&quot;SF Pro Display&quot;,&quot;SF Pro Text&quot;,Helvetica,sans-serif;" transform="matrix(1 0 0 1 263 1156)">Medium</text>
  <text style="stroke:none;fill:black;font-family:-apple-system,&quot;SF Pro Display&quot;,&quot;SF Pro Text&quot;,Helvetica,sans-serif;" transform="matrix(1 0 0 1 263 1586)">Large</text>
 </g>
 <g id="Guides">
  <g id="H-reference" style="fill:#27AAE1;stroke:none;" transform="matrix(1 0 0 1 339 696)">
   <path d="M0.976562 0L3.66211 0L12.9883-24.4629L45.752-24.4629L55.127 0L57.7637 0L30.6152-70.459L28.125-70.459ZM29.3457-67.1387L29.4434-67.1387L44.873-26.709L13.8672-26.709Z"/>
  </g>
  <line id="Baseline-S" style="fill:none;stroke:#27AAE1;opacity:1;stroke-width:0.5;" x1="263" x2="3036" y1="696" y2="696"/>
  <line id="Capline-S" style="fill:none;stroke:#27AAE1;opacity:1;stroke-width:0.5;" x1="263" x2="3036" y1="625.541" y2="625.541"/>
  <g id="H-reference" style="fill:#27AAE1;stroke:none;" transform="matrix(1 0 0 1 339 1126)">
   <path d="M0.976562 0L3.66211 0L12.9883-24.4629L45.752-24.4629L55.127 0L57.7637 0L30.6152-70.459L28.125-70.459ZM29.3457-67.1387L29.4434-67.1387L44.873-26.709L13.8672-26.709Z"/>
  </g>
  <line id="Baseline-M" style="fill:none;stroke:#27AAE1;opacity:1;stroke-width:0.5;" x1="263" x2="3036" y1="1126" y2="1126"/>
  <line id="Capline-M" style="fill:none;stroke:#27AAE1;opacity:1;stroke-width:0.5;" x1="263" x2="3036" y1="1055.54" y2="1055.54"/>
  <g id="H-reference" style="fill:#27AAE1;stroke:none;" transform="matrix(1 0 0 1 339 1556)">
   <path d="M0.976562 0L3.66211 0L12.9883-24.4629L45.752-24.4629L55.127 0L57.7637 0L30.6152-70.459L28.125-70.459ZM29.3457-67.1387L29.4434-67.1387L44.873-26.709L13.8672-26.709Z"/>
  </g>
  <line id="Baseline-L" style="fill:none;stroke:#27AAE1;opacity:1;stroke-width:0.5;" x1="263" x2="3036" y1="1556" y2="1556"/>
  <line id="Capline-L" style="fill:none;stroke:#27AAE1;opacity:1;stroke-width:0.5;" x1="263" x2="3036" y1="1485.54" y2="1485.54"/>
  <line id="left-margin" x1="1414.579781329579" x2="1414.579781329579" y1="1030.79" y2="1150.12" style="fill:none;stroke:#00AEEF;stroke-width:0.5;opacity:1.0;"/>
  <line id="right-margin" x1="1487.6802186704208" x2="1487.6802186704208" y1="1030.79" y2="1150.12" style="fill:none;stroke:#00AEEF;stroke-width:0.5;opacity:1.0;"/>
 </g>
 <g id="Symbols">
  <g id="Black-L" transform="matrix(1.0,0.0,0.0,1.0,2887.5302179151568,1475.0490187217051)">  <path stroke-linecap="round" stroke-width="1px" stroke-dasharray="none" stroke-miterlimit="4" clip-rule="evenodd" stroke-opacity="1" stroke-linejoin="round" stroke="none" fill="#000000" fill-opacity="1" fill-rule="nonzero" d="M44.883,73.217L21.822,85.361C21.892,85.325,21.944,85.329,21.984,85.358C22.023,85.387,22.043,85.435,22.035,85.483L26.435,59.769C26.767,57.742,26.094,55.703,24.637,54.287L5.972,36.222C6.011,36.26,6.024,36.311,6.009,36.357C5.994,36.404,5.953,36.438,5.904,36.445L31.635,32.7C33.646,32.422,35.405,31.147,36.305,29.302L47.734,5.93C47.705,5.987,47.66,6.015,47.612,6.015C47.563,6.015,47.518,5.987,47.496,5.944L58.92,29.305C59.859,31.141,61.57,32.381,63.549,32.694L89.306,36.443C89.409,36.458,89.513,36.468,89.618,36.473C89.567,36.471,89.522,36.438,89.503,36.39C89.485,36.344,89.497,36.289,89.533,36.254L70.898,54.403C69.439,55.854,68.789,57.891,69.132,59.886L73.532,85.602C73.519,85.519,73.534,85.482,73.564,85.46C73.595,85.438,73.635,85.435,73.669,85.452L50.655,73.331L49.183,76.125L50.744,73.38C48.986,72.38,46.853,72.294,45.02,73.149L44.883,73.217ZM47.826,78.804L46.354,76.011L47.689,78.872C47.667,78.882,47.643,78.881,47.623,78.87L47.712,78.919L70.772,91.063C72.899,92.139,75.393,91.939,77.278,90.568C79.164,89.196,80.124,86.885,79.764,84.582L75.356,58.818C75.361,58.848,75.351,58.881,75.327,58.904L93.964,40.753C95.728,38.996,96.279,36.401,95.393,34.113C94.509,31.825,92.355,30.275,89.903,30.164L89.761,33.319L90.215,30.194L64.497,26.451C64.55,26.459,64.561,26.467,64.567,26.479L53.163,3.156C52.113,1.034,49.964,-0.3,47.612,-0.3C45.259,-0.3,43.111,1.034,42.067,3.142L30.63,26.531C30.651,26.487,30.696,26.455,30.748,26.447L5.008,30.194C2.683,30.522,0.737,32.155,0.005,34.4C-0.727,36.645,-0.117,39.111,1.576,40.756L20.24,58.82C20.212,58.792,20.201,58.759,20.206,58.726L15.809,84.422C15.416,86.736,16.363,89.07,18.253,90.454C20.145,91.838,22.655,92.035,24.738,90.963L47.826,78.804Z"/>
</g>
  <g id="Heavy-L" transform="matrix(1.0,0.0,0.0,1.0,2590.8202179151567,1475.0490187217051)">  <path fill-opacity="1" fill="#000000" stroke-linejoin="round" stroke-dasharray="none" stroke-opacity="1" stroke-width="1px" clip-rule="evenodd" stroke-miterlimit="4" stroke="none" fill-rule="nonzero" stroke-linecap="round" d="M45.044,73.523L21.983,85.667C21.934,85.693,21.846,85.686,21.779,85.637C21.713,85.589,21.68,85.507,21.694,85.425L26.094,59.711C26.407,57.798,25.772,55.872,24.396,54.535L5.732,36.47C5.676,36.416,5.654,36.329,5.68,36.25C5.706,36.172,5.774,36.114,5.856,36.103L31.586,32.358C33.484,32.095,35.145,30.891,35.994,29.15L47.423,5.778C47.454,5.716,47.529,5.669,47.612,5.669C47.694,5.669,47.77,5.716,47.806,5.79L59.23,29.153C60.116,30.885,61.733,32.057,63.603,32.353L89.356,36.101C89.448,36.115,89.541,36.123,89.634,36.128C89.719,36.131,89.795,36.186,89.826,36.266C89.857,36.347,89.838,36.438,89.777,36.499L71.139,54.651C69.762,56.019,69.148,57.943,69.473,59.828L73.873,85.543C73.88,85.594,73.842,85.686,73.768,85.74C73.693,85.794,73.595,85.802,73.513,85.76L50.493,73.637L49.183,76.125L50.573,73.681C48.912,72.736,46.897,72.655,45.166,73.462L45.044,73.523ZM47.664,78.499L46.354,76.011L47.542,78.559C47.623,78.522,47.716,78.525,47.793,78.569L47.873,78.613L70.934,90.757C72.939,91.772,75.295,91.583,77.075,90.288C78.856,88.993,79.762,86.81,79.423,84.635L75.015,58.877C75.001,58.795,75.027,58.715,75.084,58.659L93.723,40.505C95.387,38.848,95.907,36.398,95.071,34.237C94.236,32.077,92.202,30.614,89.888,30.51L89.761,33.319L90.166,30.536L64.448,26.793C64.386,26.783,64.304,26.723,64.259,26.636L52.852,3.308C51.861,1.305,49.832,0.046,47.612,0.046C45.391,0.046,43.362,1.305,42.377,3.296L30.941,26.683C30.912,26.742,30.858,26.781,30.796,26.79L5.057,30.536C2.862,30.846,1.024,32.388,0.333,34.507C-0.357,36.627,0.218,38.955,1.817,40.508L20.481,58.571C20.534,58.623,20.56,58.703,20.547,58.782L16.15,84.481C15.779,86.665,16.673,88.868,18.458,90.175C20.243,91.482,22.613,91.668,24.58,90.655L47.664,78.499Z"/>
</g>
  <g id="Bold-L" transform="matrix(1.0,0.0,0.0,1.0,2294.1102179151567,1475.0490187217051)">  <path fill-rule="nonzero" fill-opacity="1" stroke-width="1px" fill="#000000" stroke-linecap="round" stroke-dasharray="none" stroke-linejoin="round" clip-rule="evenodd" stroke-miterlimit="4" stroke-opacity="1" stroke="none" d="M45.205,73.829L22.145,85.973C21.976,86.06,21.747,86.042,21.575,85.916C21.403,85.79,21.317,85.578,21.353,85.368L25.753,59.653C26.048,57.853,25.45,56.041,24.155,54.782L5.492,36.719C5.34,36.572,5.285,36.348,5.351,36.143C5.418,35.939,5.595,35.79,5.807,35.76L31.536,32.016C33.323,31.769,34.885,30.636,35.683,28.999L47.112,5.626C47.202,5.445,47.397,5.324,47.612,5.324C47.826,5.324,48.021,5.445,48.116,5.637L59.541,29.001C60.374,30.629,61.896,31.732,63.657,32.011L89.405,35.759C89.486,35.771,89.568,35.778,89.649,35.782C89.872,35.792,90.068,35.933,90.148,36.141C90.229,36.35,90.179,36.586,90.021,36.743L71.38,54.898C70.086,56.185,69.508,57.996,69.813,59.769L74.214,85.485C74.242,85.669,74.151,85.889,73.971,86.019C73.792,86.15,73.554,86.169,73.357,86.069L50.332,73.943C48.839,73.092,46.942,73.016,45.312,73.776L45.205,73.829ZM47.503,78.193L46.354,76.011L47.396,78.246C47.578,78.161,47.79,78.169,47.964,78.269L71.095,90.452C72.98,91.405,75.196,91.227,76.872,90.008C78.548,88.789,79.401,86.736,79.081,84.689L74.675,58.935C74.641,58.743,74.703,58.549,74.84,58.414L93.482,40.257C95.045,38.7,95.535,36.395,94.748,34.362C93.963,32.33,92.05,30.954,89.872,30.855L89.761,33.319L90.116,30.878L64.398,27.135C64.223,27.107,64.046,26.979,63.952,26.794L52.542,3.46C51.61,1.576,49.701,0.391,47.612,0.391C45.522,0.391,43.614,1.576,42.687,3.449L31.251,26.834C31.172,26.997,31.019,27.108,30.843,27.132L5.107,30.878C3.041,31.17,1.312,32.621,0.662,34.615C0.012,36.609,0.554,38.799,2.058,40.26L20.721,58.323C20.856,58.453,20.92,58.647,20.889,58.838L16.491,84.539C16.142,86.594,16.983,88.666,18.662,89.896C20.342,91.125,22.571,91.3,24.422,90.348L47.503,78.193Z"/>
</g>
  <g id="Semibold-L" transform="matrix(1.0,0.0,0.0,1.0,1997.4002179151569,1475.0490187217051)">  <path fill="#000000" stroke-opacity="1" stroke-dasharray="none" stroke-linecap="round" stroke-width="1px" fill-rule="nonzero" stroke-linejoin="round" stroke-miterlimit="4" fill-opacity="1" clip-rule="evenodd" stroke="none" d="M45.366,74.135L22.306,86.279C22.018,86.427,21.649,86.398,21.371,86.195C21.093,85.992,20.954,85.649,21.012,85.31L25.412,59.594C25.688,57.909,25.128,56.21,23.914,55.03L5.251,36.967C5.005,36.728,4.915,36.366,5.023,36.036C5.13,35.706,5.416,35.467,5.759,35.418L31.486,31.673C33.161,31.442,34.624,30.381,35.372,28.847L46.802,5.474C46.95,5.174,47.266,4.978,47.612,4.978C47.957,4.978,48.273,5.174,48.426,5.484L59.852,28.849C60.631,30.373,62.059,31.408,63.711,31.669L89.455,35.417C89.525,35.427,89.595,35.434,89.665,35.437C90.025,35.453,90.341,35.68,90.471,36.016C90.601,36.353,90.52,36.734,90.265,36.988L71.622,55.146C70.41,56.351,69.868,58.048,70.154,59.711L74.554,85.427C74.604,85.743,74.459,86.092,74.174,86.299C73.89,86.506,73.514,86.536,73.201,86.377L50.171,74.249C48.765,73.448,46.987,73.376,45.458,74.089L45.366,74.135ZM47.342,77.887L46.354,76.011L47.25,77.932C47.534,77.8,47.863,77.813,48.135,77.968L71.256,90.146C73.02,91.038,75.098,90.871,76.669,89.729C78.239,88.586,79.039,86.661,78.739,84.742L74.334,58.993C74.282,58.691,74.38,58.384,74.596,58.168L93.24,40.01C94.704,38.552,95.163,36.392,94.426,34.487C93.69,32.582,91.897,31.293,89.856,31.2L89.761,33.319L90.066,31.22L64.348,27.477C64.06,27.431,63.789,27.235,63.644,26.952L52.231,3.611C51.358,1.848,49.569,0.737,47.612,0.737C45.654,0.737,43.865,1.848,42.997,3.602L31.562,26.986C31.432,27.252,31.181,27.435,30.89,27.475L5.157,31.22C3.22,31.494,1.6,32.853,0.991,34.722C0.382,36.59,0.889,38.642,2.299,40.012L20.962,58.074C21.178,58.284,21.279,58.592,21.23,58.894L16.832,84.597C16.505,86.523,17.292,88.465,18.866,89.617C20.44,90.769,22.53,90.933,24.264,90.041L47.342,77.887Z"/>
</g>
  <g id="Medium-L" transform="matrix(1.0,0.0,0.0,1.0,1700.6902179151568,1475.0490187217051)">  <path stroke-linejoin="round" stroke-dasharray="none" fill-rule="nonzero" stroke-miterlimit="4" stroke-linecap="round" stroke="none" stroke-opacity="1" stroke-width="1px" fill="#000000" fill-opacity="1" clip-rule="evenodd" d="M45.527,74.44L22.467,86.585C22.059,86.795,21.55,86.755,21.167,86.474C20.783,86.193,20.592,85.72,20.671,85.252L25.071,59.536C25.329,57.965,24.806,56.379,23.673,55.278L5.011,37.216C4.669,36.884,4.546,36.384,4.694,35.929C4.842,35.474,5.237,35.143,5.711,35.076L31.436,31.331C33,31.115,34.364,30.126,35.062,28.696L46.491,5.322C46.699,4.903,47.134,4.632,47.612,4.632C48.088,4.632,48.524,4.903,48.736,5.33L60.162,28.697C60.889,30.117,62.222,31.084,63.765,31.328L89.505,35.075L89.68,35.091C90.177,35.114,90.614,35.428,90.793,35.892C90.973,36.356,90.861,36.882,90.509,37.233L71.863,55.394C70.733,56.517,70.228,58.101,70.495,59.652L74.895,85.368C74.965,85.818,74.767,86.296,74.378,86.579C73.989,86.862,73.474,86.903,73.045,86.686L50.01,74.555C48.692,73.804,47.031,73.737,45.604,74.402L45.527,74.44ZM47.181,77.581L46.354,76.011L47.104,77.619C47.489,77.439,47.937,77.458,48.306,77.668L71.417,89.84C73.06,90.671,74.999,90.515,76.465,89.449C77.931,88.383,78.677,86.586,78.398,84.795L73.993,59.052C73.922,58.638,74.056,58.218,74.352,57.923L92.999,39.762C94.363,38.404,94.791,36.389,94.103,34.612C93.417,32.835,91.744,31.632,89.841,31.546L89.761,33.319L90.016,31.563L64.298,27.819C63.897,27.756,63.531,27.49,63.336,27.109L51.92,3.763C51.106,2.119,49.438,1.083,47.612,1.083C45.785,1.083,44.117,2.119,43.307,3.756L31.872,27.138C31.692,27.508,31.342,27.761,30.938,27.817L5.207,31.563C3.399,31.818,1.888,33.086,1.32,34.829C0.751,36.572,1.225,38.486,2.54,39.764L21.202,57.826C21.5,58.115,21.639,58.536,21.571,58.95L17.172,84.655C16.868,86.451,17.602,88.263,19.07,89.338C20.539,90.413,22.488,90.566,24.106,89.733L47.181,77.581Z"/>
</g>
  <g id="Regular-L" transform="matrix(1.0,0.0,0.0,1.0,1403.9802179151568,1475.0490187217051)">  <path fill-rule="nonzero" stroke-linejoin="round" stroke="none" fill="#000000" stroke-width="1px" stroke-miterlimit="4" stroke-linecap="round" fill-opacity="1" stroke-opacity="1" clip-rule="evenodd" stroke-dasharray="none" d="M45.688,74.746L22.628,86.891C22.101,87.162,21.452,87.111,20.963,86.753C20.474,86.395,20.229,85.791,20.33,85.194L24.731,59.478C24.969,58.02,24.484,56.548,23.432,55.526L4.77,37.464C4.334,37.04,4.176,36.402,4.365,35.822C4.554,35.241,5.058,34.819,5.662,34.733L31.386,30.989C32.838,30.788,34.104,29.871,34.751,28.544L46.18,5.171C46.447,4.631,47.003,4.286,47.612,4.286C48.22,4.286,48.776,4.631,49.046,5.177L60.473,28.545C61.146,29.861,62.385,30.76,63.819,30.986L89.555,34.732L89.696,34.746C90.33,34.775,90.887,35.175,91.116,35.767C91.345,36.359,91.202,37.03,90.753,37.478L72.104,55.641C71.057,56.682,70.588,58.153,70.836,59.593L75.236,85.31C75.327,85.893,75.075,86.499,74.581,86.858C74.087,87.217,73.434,87.27,72.889,86.995L49.849,74.861C48.618,74.16,47.076,74.098,45.75,74.716ZM46.958,77.306C47.444,77.079,48.01,77.102,48.477,77.367L71.578,89.534C73.1,90.304,74.901,90.159,76.262,89.169C77.623,88.179,78.316,86.511,78.056,84.849L73.652,59.11C73.562,58.586,73.732,58.052,74.108,57.678L92.758,39.514C94.022,38.255,94.419,36.385,93.781,34.736C93.144,33.088,91.592,31.971,89.825,31.891L89.761,33.319L89.966,31.905L64.248,28.161C63.734,28.08,63.274,27.746,63.028,27.267L51.61,3.915C50.855,2.39,49.306,1.429,47.612,1.429C45.916,1.429,44.368,2.39,43.616,3.909L32.183,27.29C31.953,27.763,31.504,28.088,30.985,28.16L5.257,31.905C3.578,32.142,2.176,33.318,1.648,34.936C1.121,36.554,1.561,38.33,2.781,39.516L21.443,57.577C21.822,57.946,21.998,58.48,21.912,59.006L17.513,84.714C17.23,86.38,17.912,88.061,19.275,89.059C20.637,90.056,22.446,90.198,23.947,89.426L47.02,77.275Z"/>
</g>
  <g id="Light-L" transform="matrix(1.0,0.0,0.0,1.0,1107.270217915157,1475.0490187217051)">  <path stroke-opacity="1" stroke-miterlimit="4" stroke-width="1px" stroke="none" fill="#000000" stroke-dasharray="none" clip-rule="evenodd" stroke-linecap="round" fill-rule="nonzero" stroke-linejoin="round" fill-opacity="1" d="M45.799,74.957L22.739,87.102C22.13,87.415,21.384,87.357,20.822,86.945C20.26,86.534,19.979,85.841,20.095,85.154L24.496,59.438C24.722,58.059,24.262,56.665,23.266,55.697L4.605,37.635C4.103,37.148,3.921,36.415,4.139,35.748C4.356,35.081,4.935,34.596,5.629,34.498L31.352,30.753C32.727,30.563,33.925,29.695,34.537,28.44L45.966,5.066C46.274,4.445,46.912,4.048,47.612,4.048C48.31,4.048,48.949,4.445,49.259,5.071L60.687,28.441C61.324,29.685,62.498,30.536,63.857,30.751L89.589,34.497L89.707,34.508C90.435,34.541,91.075,35.001,91.338,35.681C91.601,36.362,91.437,37.133,90.921,37.647L72.27,55.812C71.28,56.796,70.836,58.189,71.07,59.553L75.471,85.27C75.576,85.945,75.288,86.639,74.721,87.051C74.155,87.463,73.406,87.523,72.781,87.207L49.738,75.071C48.567,74.405,47.107,74.346,45.851,74.931ZM46.857,77.09C47.414,76.83,48.061,76.856,48.595,77.16L71.689,89.323C73.128,90.051,74.833,89.914,76.122,88.977C77.411,88.039,78.067,86.46,77.821,84.885L73.417,59.15C73.314,58.55,73.509,57.938,73.941,57.509L92.592,39.344C93.787,38.153,94.163,36.383,93.559,34.822C92.956,33.261,91.486,32.205,89.814,32.129L89.932,32.14L64.214,28.397C63.621,28.303,63.097,27.923,62.816,27.375L51.396,4.02C50.682,2.577,49.216,1.667,47.612,1.667C46.007,1.667,44.542,2.577,43.83,4.015L32.397,27.395C32.132,27.938,31.615,28.313,31.018,28.396L5.291,32.14C3.701,32.365,2.374,33.479,1.875,35.01C1.376,36.541,1.792,38.223,2.947,39.345L21.608,57.406C22.044,57.83,22.246,58.442,22.147,59.044L17.748,84.754C17.48,86.331,18.126,87.923,19.415,88.867C20.705,89.811,22.417,89.945,23.838,89.214L46.909,77.064Z"/>
</g>
  <g id="Thin-L" transform="matrix(1.0,0.0,0.0,1.0,810.560217915157,1475.0490187217051)">  <path clip-rule="evenodd" stroke-opacity="1" stroke-width="1px" fill="#000000" fill-opacity="1" stroke="none" stroke-linejoin="round" fill-rule="nonzero" stroke-dasharray="none" stroke-miterlimit="4" stroke-linecap="round" d="M45.91,75.168L22.85,87.312C22.159,87.668,21.316,87.602,20.681,87.137C20.047,86.673,19.729,85.89,19.861,85.114L24.261,59.397C24.474,58.097,24.04,56.781,23.1,55.868L4.439,37.806C3.871,37.255,3.667,36.428,3.912,35.674C4.158,34.921,4.811,34.373,5.596,34.262L31.318,30.518C32.616,30.338,33.745,29.52,34.323,28.335L45.753,4.961C46.101,4.258,46.822,3.81,47.612,3.81C48.401,3.81,49.122,4.258,49.473,4.965L60.901,28.336C61.501,29.509,62.61,30.313,63.894,30.516L89.623,34.261L89.718,34.27C90.54,34.307,91.263,34.827,91.56,35.595C91.857,36.364,91.672,37.235,91.089,37.816L72.436,55.983C71.503,56.911,71.084,58.225,71.305,59.513L75.706,85.23C75.825,85.996,75.5,86.779,74.861,87.243C74.223,87.708,73.378,87.776,72.674,87.42L49.627,75.282C48.517,74.65,47.137,74.595,45.952,75.147ZM46.757,76.874C47.383,76.582,48.112,76.611,48.712,76.953L71.8,89.112C73.156,89.798,74.765,89.669,75.982,88.784C77.198,87.899,77.818,86.408,77.586,84.922L73.183,59.19C73.066,58.514,73.286,57.824,73.773,57.34L92.425,39.173C93.552,38.051,93.907,36.381,93.337,34.908C92.767,33.435,91.381,32.438,89.804,32.367L89.898,32.376L64.18,28.633C63.509,28.526,62.919,28.099,62.604,27.484L51.182,4.124C50.508,2.764,49.125,1.905,47.612,1.905C46.098,1.905,44.715,2.764,44.043,4.12L32.611,27.499C32.311,28.114,31.726,28.538,31.05,28.632L5.325,32.376C3.825,32.588,2.572,33.639,2.101,35.084C1.63,36.529,2.023,38.115,3.113,39.174L21.774,57.235C22.266,57.713,22.493,58.404,22.382,59.083L17.983,84.794C17.73,86.282,18.339,87.784,19.556,88.675C20.773,89.565,22.389,89.692,23.729,89.002L46.798,76.853Z"/>
</g>
  <g id="Ultralight-L" transform="matrix(1.0,0.0,0.0,1.0,513.8502179151569,1475.0490187217051)">  <path fill-opacity="1" stroke-opacity="1" fill="#000000" stroke-miterlimit="4" fill-rule="nonzero" stroke-linecap="round" stroke-linejoin="round" clip-rule="evenodd" stroke-dasharray="none" stroke-width="1px" stroke="none" d="M46.021,75.378L22.961,87.523C22.187,87.921,21.248,87.847,20.541,87.33C19.833,86.812,19.479,85.939,19.626,85.074L24.026,59.357C24.226,58.135,23.818,56.898,22.934,56.038L4.273,37.977C3.64,37.363,3.412,36.44,3.686,35.6C3.96,34.76,4.688,34.15,5.562,34.026L31.283,30.282C32.505,30.113,33.566,29.344,34.109,28.231L45.539,4.857C45.928,4.071,46.731,3.572,47.612,3.572C48.492,3.572,49.296,4.071,49.686,4.86L61.115,28.232C61.678,29.332,62.723,30.09,63.931,30.281L89.658,34.026C90.645,34.074,91.451,34.653,91.782,35.51C92.113,36.366,91.907,37.337,91.257,37.985L72.603,56.153C71.726,57.025,71.331,58.261,71.54,59.472L75.94,85.19C76.074,86.048,75.712,86.919,75.001,87.436C74.291,87.953,73.35,88.029,72.566,87.632L49.516,75.493C48.466,74.895,47.168,74.843,46.052,75.363ZM46.656,76.658C47.352,76.333,48.162,76.366,48.83,76.746L71.911,88.902C73.184,89.545,74.697,89.424,75.842,88.592C76.986,87.759,77.568,86.357,77.35,84.959L72.948,59.231C72.818,58.478,73.063,57.71,73.605,57.171L92.259,39.003C93.317,37.949,93.65,36.379,93.115,34.994C92.579,33.609,91.276,32.672,89.793,32.605L64.145,28.868C63.397,28.75,62.742,28.275,62.392,27.592L50.968,4.229C50.335,2.95,49.035,2.143,47.612,2.143C46.188,2.143,44.888,2.95,44.257,4.226L32.825,27.604C32.49,28.29,31.837,28.763,31.083,28.868L5.36,32.612C3.948,32.811,2.77,33.799,2.328,35.157C1.885,36.516,2.254,38.008,3.279,39.003L21.94,57.064C22.487,57.597,22.741,58.365,22.617,59.121L18.217,84.834C17.98,86.233,18.553,87.645,19.697,88.482C20.841,89.32,22.36,89.439,23.62,88.79L46.687,76.643Z"/>
</g>
  <g id="Black-M" transform="matrix(1.0,0.0,0.0,1.0,2898.1297813295787,1055.3273832447812)">  <path stroke-linecap="round" stroke-width="1px" stroke-dasharray="none" stroke-miterlimit="4" clip-rule="evenodd" stroke-opacity="1" stroke-linejoin="round" stroke="none" fill="#000000" fill-opacity="1" fill-rule="nonzero" d="M34.793,56.757L16.916,66.172C16.971,66.144,17.011,66.147,17.042,66.169C17.072,66.191,17.087,66.229,17.081,66.266L20.492,46.333C20.749,44.761,20.228,43.181,19.099,42.083L4.63,28.079C4.66,28.108,4.67,28.148,4.658,28.184C4.646,28.22,4.615,28.247,4.577,28.252L24.524,25.349C26.082,25.133,27.446,24.145,28.143,22.714L37.003,4.597C36.981,4.641,36.946,4.663,36.908,4.663C36.87,4.663,36.836,4.641,36.819,4.608L45.674,22.717C46.402,24.14,47.729,25.102,49.263,25.344L69.229,28.251C69.31,28.262,69.39,28.27,69.471,28.274C69.432,28.272,69.397,28.247,69.382,28.21C69.368,28.173,69.377,28.131,69.405,28.104L54.96,42.173C53.828,43.297,53.324,44.877,53.591,46.424L57.002,66.358C56.991,66.294,57.003,66.265,57.027,66.248C57.05,66.231,57.081,66.228,57.108,66.242L39.267,56.846L38.127,59.012L39.336,56.884C37.974,56.109,36.32,56.042,34.899,56.704L34.793,56.757ZM37.074,61.089L35.934,58.923L36.968,61.141C36.951,61.149,36.932,61.148,36.917,61.139L36.986,61.177L54.862,70.592C56.511,71.426,58.444,71.27,59.906,70.208C61.368,69.144,62.111,67.353,61.833,65.567L58.416,45.596C58.42,45.618,58.411,45.644,58.393,45.662L72.84,31.591C74.208,30.23,74.635,28.218,73.948,26.444C73.263,24.67,71.593,23.469,69.692,23.383L69.582,25.828L69.934,23.406L49.998,20.504C50.038,20.51,50.047,20.517,50.052,20.526L41.212,2.446C40.397,0.802,38.732,-0.233,36.908,-0.233C35.085,-0.233,33.419,0.802,32.61,2.436L23.744,20.566C23.761,20.533,23.795,20.507,23.836,20.502L3.882,23.406C2.08,23.661,0.571,24.927,0.004,26.667C-0.564,28.407,-0.091,30.318,1.222,31.594L15.69,45.597C15.668,45.575,15.66,45.549,15.664,45.524L12.255,65.444C11.951,67.237,12.684,69.046,14.15,70.119C15.616,71.192,17.562,71.345,19.177,70.514L37.074,61.089Z"/>
</g>
  <g id="Heavy-M" transform="matrix(1.0,0.0,0.0,1.0,2601.4197813295787,1055.3273832447812)">  <path fill-opacity="1" fill="#000000" stroke-linejoin="round" stroke-dasharray="none" stroke-opacity="1" stroke-width="1px" clip-rule="evenodd" stroke-miterlimit="4" stroke="none" fill-rule="nonzero" stroke-linecap="round" d="M34.918,56.994L17.041,66.409C17.003,66.428,16.935,66.423,16.883,66.385C16.832,66.348,16.806,66.284,16.817,66.221L20.228,46.288C20.471,44.804,19.978,43.312,18.912,42.275L4.443,28.272C4.4,28.229,4.383,28.162,4.403,28.101C4.423,28.04,4.476,27.996,4.539,27.987L24.485,25.084C25.957,24.88,27.244,23.947,27.902,22.597L36.762,4.479C36.786,4.431,36.844,4.395,36.908,4.395C36.972,4.395,37.031,4.431,37.059,4.489L45.915,22.599C46.602,23.942,47.855,24.85,49.305,25.079L69.268,27.985C69.339,27.996,69.411,28.003,69.483,28.006C69.55,28.009,69.608,28.051,69.632,28.113C69.657,28.176,69.642,28.246,69.594,28.293L55.147,42.365C54.079,43.426,53.603,44.917,53.855,46.378L57.266,66.313C57.272,66.352,57.242,66.423,57.184,66.465C57.127,66.507,57.05,66.513,56.987,66.481L39.142,57.083L38.127,59.012L39.204,57.117C37.917,56.385,36.355,56.322,35.012,56.947L34.918,56.994ZM36.949,60.852L35.934,58.923L36.855,60.898C36.917,60.869,36.989,60.872,37.049,60.906L37.111,60.94L54.987,70.355C56.542,71.141,58.368,70.994,59.748,69.991C61.129,68.987,61.831,67.295,61.568,65.609L58.151,45.641C58.141,45.578,58.16,45.516,58.204,45.472L72.653,31.399C73.943,30.115,74.346,28.216,73.698,26.541C73.051,24.866,71.475,23.732,69.68,23.651L69.582,25.828L69.896,23.671L49.959,20.77C49.912,20.762,49.848,20.715,49.814,20.648L40.971,2.564C40.202,1.012,38.63,0.035,36.908,0.035C35.187,0.035,33.614,1.012,32.85,2.555L23.985,20.684C23.962,20.73,23.921,20.761,23.873,20.767L3.92,23.671C2.218,23.912,0.794,25.107,0.258,26.75C-0.277,28.393,0.169,30.197,1.409,31.401L15.877,45.404C15.918,45.444,15.938,45.506,15.928,45.568L12.519,65.489C12.232,67.182,12.925,68.89,14.308,69.903C15.692,70.916,17.53,71.06,19.054,70.276L36.949,60.852Z"/>
</g>
  <g id="Bold-M" transform="matrix(1.0,0.0,0.0,1.0,2304.7097813295786,1055.3273832447812)">  <path fill-rule="nonzero" fill-opacity="1" stroke-width="1px" fill="#000000" stroke-linecap="round" stroke-dasharray="none" stroke-linejoin="round" clip-rule="evenodd" stroke-miterlimit="4" stroke-opacity="1" stroke="none" d="M35.043,57.231L17.166,66.646C17.035,66.713,16.858,66.699,16.725,66.602C16.592,66.504,16.525,66.339,16.553,66.176L19.964,46.242C20.192,44.847,19.729,43.443,18.725,42.467L4.257,28.464C4.14,28.35,4.097,28.176,4.148,28.018C4.2,27.86,4.337,27.745,4.502,27.721L24.446,24.818C25.832,24.627,27.042,23.749,27.661,22.48L36.521,4.361C36.591,4.221,36.742,4.127,36.908,4.127C37.074,4.127,37.226,4.221,37.299,4.37L46.156,22.481C46.801,23.743,47.981,24.599,49.347,24.815L69.307,27.72C69.369,27.729,69.432,27.735,69.495,27.738C69.668,27.746,69.82,27.855,69.882,28.016C69.945,28.178,69.906,28.361,69.783,28.483L55.334,42.557C54.33,43.554,53.882,44.958,54.119,46.333L57.53,66.267C57.552,66.41,57.481,66.581,57.342,66.682C57.203,66.783,57.019,66.798,56.866,66.72L39.017,57.32C37.859,56.661,36.389,56.601,35.126,57.19L35.043,57.231ZM36.824,60.614L35.934,58.923L36.741,60.656C36.882,60.59,37.046,60.596,37.182,60.673L55.112,70.117C56.573,70.857,58.292,70.718,59.591,69.774C60.89,68.829,61.551,67.237,61.303,65.65L57.887,45.686C57.862,45.537,57.909,45.387,58.015,45.282L72.466,31.207C73.679,30,74.058,28.213,73.448,26.637C72.839,25.062,71.356,23.995,69.668,23.919L69.582,25.828L69.857,23.937L49.921,21.035C49.785,21.013,49.648,20.914,49.575,20.771L40.73,2.682C40.007,1.222,38.528,0.303,36.908,0.303C35.288,0.303,33.809,1.222,33.09,2.674L24.226,20.802C24.164,20.928,24.046,21.014,23.909,21.033L3.959,23.937C2.357,24.163,1.017,25.287,0.513,26.833C0.009,28.379,0.429,30.076,1.596,31.209L16.063,45.211C16.167,45.313,16.217,45.463,16.193,45.611L12.784,65.534C12.513,67.127,13.165,68.734,14.467,69.687C15.769,70.64,17.497,70.775,18.932,70.037L36.824,60.614Z"/>
</g>
  <g id="Semibold-M" transform="matrix(1.0,0.0,0.0,1.0,2007.999781329579,1055.3273832447812)">  <path fill="#000000" stroke-opacity="1" stroke-dasharray="none" stroke-linecap="round" stroke-width="1px" fill-rule="nonzero" stroke-linejoin="round" stroke-miterlimit="4" fill-opacity="1" clip-rule="evenodd" stroke="none" d="M35.168,57.469L17.291,66.883C17.068,66.998,16.782,66.975,16.567,66.818C16.351,66.66,16.244,66.395,16.288,66.132L19.699,46.197C19.913,44.891,19.479,43.574,18.538,42.659L4.071,28.657C3.88,28.471,3.81,28.191,3.894,27.935C3.977,27.679,4.198,27.493,4.464,27.456L24.408,24.553C25.706,24.374,26.841,23.551,27.421,22.362L36.28,4.244C36.396,4.011,36.64,3.859,36.908,3.859C37.176,3.859,37.421,4.011,37.54,4.251L46.397,22.364C47.001,23.545,48.108,24.347,49.389,24.55L69.345,27.455C69.399,27.463,69.453,27.468,69.508,27.47C69.787,27.483,70.032,27.659,70.132,27.92C70.233,28.181,70.171,28.476,69.973,28.673L55.521,42.749C54.581,43.683,54.161,44.999,54.383,46.287L57.794,66.222C57.832,66.468,57.72,66.738,57.5,66.899C57.279,67.059,56.988,67.082,56.745,66.959L38.892,57.557C37.802,56.937,36.424,56.881,35.239,57.433L35.168,57.469ZM36.699,60.377L35.934,58.923L36.628,60.413C36.848,60.31,37.103,60.321,37.314,60.44L55.237,69.88C56.605,70.572,58.215,70.442,59.433,69.557C60.651,68.671,61.27,67.179,61.038,65.691L57.623,45.731C57.583,45.497,57.659,45.259,57.826,45.092L72.279,31.015C73.414,29.885,73.77,28.211,73.198,26.734C72.628,25.258,71.238,24.258,69.656,24.186L69.582,25.828L69.819,24.202L49.882,21.3C49.659,21.265,49.449,21.112,49.336,20.893L40.489,2.8C39.812,1.432,38.426,0.572,36.908,0.572C35.39,0.572,34.004,1.432,33.331,2.792L24.467,20.92C24.366,21.126,24.171,21.267,23.946,21.298L3.998,24.202C2.496,24.414,1.24,25.468,0.768,26.916C0.296,28.365,0.689,29.955,1.782,31.017L16.249,45.019C16.417,45.182,16.496,45.42,16.457,45.654L13.048,65.579C12.794,67.072,13.405,68.577,14.625,69.47C15.845,70.363,17.465,70.491,18.809,69.799L36.699,60.377Z"/>
</g>
  <g id="Medium-M" transform="matrix(1.0,0.0,0.0,1.0,1711.289781329579,1055.3273832447812)">  <path stroke-linejoin="round" stroke-dasharray="none" fill-rule="nonzero" stroke-miterlimit="4" stroke-linecap="round" stroke="none" stroke-opacity="1" stroke-width="1px" fill="#000000" fill-opacity="1" clip-rule="evenodd" d="M35.293,57.706L17.416,67.12C17.1,67.283,16.706,67.252,16.408,67.034C16.111,66.817,15.962,66.45,16.024,66.087L19.435,46.152C19.635,44.934,19.229,43.705,18.351,42.851L3.884,28.849C3.62,28.592,3.524,28.205,3.639,27.852C3.754,27.499,4.06,27.242,4.427,27.19L24.369,24.288C25.581,24.12,26.639,23.354,27.18,22.245L36.04,4.126C36.201,3.8,36.538,3.591,36.908,3.591C37.278,3.591,37.616,3.801,37.78,4.132L46.637,22.246C47.201,23.347,48.234,24.096,49.431,24.285L69.384,27.19L69.52,27.203C69.905,27.22,70.243,27.463,70.382,27.823C70.522,28.183,70.435,28.591,70.162,28.863L55.708,42.941C54.832,43.811,54.44,45.039,54.647,46.242L58.058,66.177C58.113,66.526,57.959,66.896,57.657,67.115C57.356,67.335,56.956,67.367,56.624,67.198L38.768,57.794C37.745,57.212,36.458,57.16,35.352,57.676L35.293,57.706ZM36.575,60.14L35.934,58.923L36.515,60.17C36.813,60.031,37.16,60.045,37.447,60.207L55.362,69.643C56.636,70.288,58.139,70.167,59.275,69.34C60.412,68.514,60.99,67.121,60.773,65.733L57.359,45.777C57.304,45.456,57.408,45.13,57.637,44.902L72.092,30.823C73.15,29.77,73.481,28.208,72.948,26.831C72.416,25.453,71.12,24.521,69.644,24.454L69.582,25.828L69.78,24.467L49.844,21.565C49.533,21.516,49.249,21.31,49.098,21.015L40.248,2.917C39.617,1.643,38.324,0.84,36.908,0.84C35.492,0.84,34.199,1.642,33.571,2.911L24.707,21.037C24.568,21.324,24.296,21.521,23.983,21.564L4.036,24.467C2.635,24.665,1.463,25.648,1.023,26.999C0.583,28.351,0.95,29.834,1.969,30.825L16.436,44.826C16.667,45.051,16.774,45.377,16.722,45.698L13.312,65.624C13.076,67.017,13.645,68.421,14.783,69.254C15.921,70.087,17.432,70.206,18.686,69.561L36.575,60.14Z"/>
</g>
  <g id="Regular-M" transform="matrix(1.0,0.0,0.0,1.0,1414.579781329579,1055.3273832447812)">  <path fill-rule="nonzero" stroke-linejoin="round" stroke="none" fill="#000000" stroke-width="1px" stroke-miterlimit="4" stroke-linecap="round" fill-opacity="1" stroke-opacity="1" clip-rule="evenodd" stroke-dasharray="none" d="M35.417,57.943L17.541,67.357C17.133,67.567,16.629,67.528,16.25,67.25C15.871,66.973,15.681,66.505,15.76,66.042L19.171,46.107C19.356,44.977,18.98,43.836,18.165,43.044L3.698,29.042C3.359,28.713,3.237,28.219,3.384,27.769C3.531,27.319,3.921,26.991,4.389,26.925L24.331,24.023C25.456,23.867,26.437,23.156,26.939,22.127L35.799,4.008C36.006,3.59,36.436,3.323,36.908,3.323C37.38,3.323,37.811,3.59,38.02,4.013L46.878,22.128C47.4,23.148,48.361,23.845,49.472,24.02L69.422,26.924L69.532,26.935C70.023,26.957,70.455,27.268,70.632,27.726C70.81,28.186,70.7,28.706,70.351,29.053L55.895,43.133C55.083,43.94,54.719,45.08,54.911,46.196L58.323,66.132C58.393,66.584,58.198,67.053,57.815,67.332C57.432,67.61,56.925,67.651,56.503,67.438L38.643,58.032C37.688,57.488,36.493,57.44,35.465,57.919ZM36.402,59.927C36.779,59.751,37.217,59.769,37.579,59.974L55.487,69.406C56.667,70.003,58.063,69.891,59.118,69.124C60.173,68.356,60.71,67.063,60.509,65.774L57.095,45.822C57.025,45.415,57.157,45.002,57.448,44.712L71.905,30.631C72.885,29.655,73.193,28.206,72.698,26.928C72.204,25.649,71.001,24.784,69.632,24.722L69.582,25.828L69.741,24.732L49.805,21.83C49.406,21.767,49.049,21.509,48.859,21.137L40.008,3.035C39.422,1.853,38.222,1.108,36.908,1.108C35.594,1.108,34.394,1.853,33.811,3.03L24.948,21.155C24.77,21.521,24.421,21.774,24.019,21.829L4.075,24.732C2.774,24.916,1.687,25.828,1.278,27.082C0.869,28.336,1.21,29.713,2.156,30.632L16.622,44.634C16.916,44.919,17.053,45.334,16.986,45.741L13.576,65.67C13.357,66.961,13.886,68.265,14.942,69.038C15.998,69.811,17.4,69.921,18.564,69.322L36.45,59.903Z"/>
</g>
  <g id="Light-M" transform="matrix(1.0,0.0,0.0,1.0,1117.8697813295792,1055.3273832447812)">  <path stroke-opacity="1" stroke-miterlimit="4" stroke-width="1px" stroke="none" fill="#000000" stroke-dasharray="none" clip-rule="evenodd" stroke-linecap="round" fill-rule="nonzero" stroke-linejoin="round" fill-opacity="1" d="M35.503,58.106L17.627,67.521C17.155,67.764,16.577,67.718,16.141,67.399C15.706,67.081,15.487,66.543,15.578,66.011L18.989,46.076C19.164,45.007,18.808,43.926,18.036,43.176L3.569,29.175C3.18,28.797,3.04,28.229,3.208,27.712C3.377,27.194,3.825,26.818,4.364,26.742L24.304,23.84C25.37,23.693,26.298,23.02,26.773,22.046L35.633,3.927C35.871,3.445,36.366,3.138,36.908,3.138C37.45,3.138,37.945,3.445,38.185,3.931L47.044,22.047C47.538,23.012,48.448,23.672,49.501,23.838L69.449,26.742L69.54,26.75C70.105,26.776,70.601,27.133,70.805,27.66C71.009,28.187,70.882,28.785,70.481,29.184L56.023,43.265C55.256,44.028,54.911,45.108,55.093,46.165L58.505,66.101C58.586,66.624,58.363,67.162,57.923,67.481C57.485,67.8,56.904,67.847,56.419,67.602L38.557,58.195C37.649,57.678,36.517,57.633,35.543,58.086ZM36.324,59.759C36.755,59.558,37.257,59.579,37.67,59.814L55.573,69.243C56.689,69.807,58.01,69.701,59.009,68.974C60.008,68.248,60.517,67.023,60.326,65.803L56.913,45.853C56.833,45.387,56.984,44.913,57.318,44.581L71.776,30.499C72.703,29.576,72.994,28.204,72.526,26.994C72.059,25.784,70.92,24.965,69.624,24.906L69.715,24.915L49.778,22.013C49.319,21.94,48.912,21.645,48.695,21.221L39.842,3.116C39.288,1.998,38.152,1.292,36.908,1.292C35.664,1.292,34.528,1.997,33.977,3.112L25.114,21.236C24.909,21.658,24.508,21.948,24.045,22.012L4.101,24.915C2.869,25.089,1.84,25.952,1.453,27.139C1.066,28.327,1.389,29.63,2.284,30.5L16.751,44.501C17.088,44.829,17.245,45.304,17.168,45.771L13.758,65.701C13.551,66.923,14.051,68.157,15.051,68.889C16.05,69.621,17.378,69.725,18.479,69.158L36.364,59.74Z"/>
</g>
  <g id="Thin-M" transform="matrix(1.0,0.0,0.0,1.0,821.1597813295791,1055.3273832447812)">  <path clip-rule="evenodd" stroke-opacity="1" stroke-width="1px" fill="#000000" fill-opacity="1" stroke="none" stroke-linejoin="round" fill-rule="nonzero" stroke-dasharray="none" stroke-miterlimit="4" stroke-linecap="round" d="M35.589,58.27L17.713,67.684C17.177,67.96,16.524,67.908,16.032,67.548C15.54,67.188,15.294,66.581,15.396,65.98L18.807,46.044C18.972,45.036,18.636,44.017,17.907,43.308L3.441,29.307C3.001,28.88,2.842,28.239,3.033,27.654C3.223,27.07,3.73,26.645,4.338,26.56L24.277,23.657C25.284,23.518,26.159,22.883,26.607,21.965L35.467,3.846C35.737,3.301,36.296,2.954,36.908,2.954C37.52,2.954,38.079,3.301,38.351,3.849L47.21,21.966C47.675,22.875,48.535,23.498,49.53,23.656L69.476,26.559L69.549,26.566C70.186,26.595,70.747,26.998,70.977,27.593C71.207,28.189,71.064,28.864,70.611,29.315L56.152,43.397C55.429,44.117,55.103,45.136,55.275,46.134L58.686,66.07C58.779,66.664,58.527,67.271,58.032,67.631C57.537,67.99,56.882,68.043,56.336,67.767L38.471,58.358C37.61,57.868,36.54,57.825,35.621,58.254ZM36.246,59.592C36.731,59.366,37.296,59.389,37.762,59.653L55.659,69.079C56.71,69.611,57.958,69.511,58.901,68.825C59.844,68.139,60.324,66.983,60.144,65.831L56.731,45.884C56.64,45.359,56.811,44.825,57.188,44.45L71.648,30.367C72.521,29.497,72.796,28.202,72.354,27.061C71.913,25.919,70.838,25.146,69.615,25.091L69.688,25.098L49.752,22.196C49.232,22.114,48.775,21.782,48.531,21.305L39.676,3.197C39.154,2.142,38.082,1.477,36.908,1.477C35.735,1.477,34.663,2.142,34.142,3.194L25.28,21.317C25.047,21.794,24.594,22.123,24.07,22.195L4.128,25.098C2.965,25.262,1.994,26.077,1.629,27.197C1.264,28.317,1.568,29.547,2.413,30.367L16.879,44.368C17.26,44.739,17.437,45.274,17.351,45.801L13.94,65.732C13.744,66.885,14.216,68.049,15.16,68.74C16.103,69.43,17.356,69.529,18.395,68.994L36.278,59.576Z"/>
</g>
  <g id="Ultralight-M" transform="matrix(1.0,0.0,0.0,1.0,524.4497813295791,1055.3273832447812)">  <path fill-opacity="1" stroke-opacity="1" fill="#000000" stroke-miterlimit="4" fill-rule="nonzero" stroke-linecap="round" stroke-linejoin="round" clip-rule="evenodd" stroke-dasharray="none" stroke-width="1px" stroke="none" d="M35.675,58.433L17.799,67.847C17.199,68.156,16.471,68.099,15.923,67.697C15.375,67.296,15.1,66.619,15.214,65.949L18.625,46.013C18.78,45.066,18.464,44.107,17.779,43.441L3.313,29.44C2.822,28.963,2.645,28.248,2.857,27.597C3.07,26.946,3.634,26.473,4.312,26.377L24.251,23.475C25.197,23.344,26.02,22.747,26.441,21.884L35.301,3.765C35.603,3.156,36.226,2.769,36.908,2.769C37.59,2.769,38.214,3.156,38.516,3.767L47.376,21.885C47.813,22.738,48.622,23.325,49.559,23.474L69.502,26.376C70.268,26.414,70.892,26.863,71.149,27.527C71.406,28.191,71.246,28.943,70.742,29.445L56.281,43.53C55.601,44.205,55.296,45.164,55.457,46.102L58.868,66.038C58.972,66.704,58.692,67.379,58.141,67.78C57.59,68.181,56.861,68.239,56.253,67.932L38.385,58.522C37.571,58.058,36.564,58.018,35.699,58.421ZM36.168,59.425C36.707,59.173,37.335,59.199,37.853,59.493L55.745,68.916C56.732,69.415,57.905,69.321,58.792,68.676C59.679,68.03,60.131,66.943,59.961,65.86L56.549,45.915C56.448,45.331,56.638,44.736,57.058,44.319L71.519,30.235C72.339,29.418,72.597,28.201,72.182,27.127C71.767,26.054,70.757,25.327,69.607,25.275L49.725,22.378C49.145,22.287,48.637,21.919,48.366,21.389L39.51,3.278C39.019,2.287,38.011,1.661,36.908,1.661C35.805,1.661,34.797,2.287,34.307,3.276L25.446,21.398C25.186,21.93,24.68,22.297,24.095,22.378L4.155,25.28C3.06,25.435,2.148,26.201,1.804,27.254C1.461,28.307,1.747,29.463,2.542,30.235L17.007,44.236C17.432,44.649,17.629,45.244,17.533,45.83L14.122,65.763C13.938,66.847,14.382,67.942,15.269,68.591C16.156,69.24,17.333,69.333,18.31,68.83L36.192,59.413Z"/>
</g>
  <g id="Black-S" transform="matrix(1.0,0.0,0.0,1.0,2906.0611787810603,633.018435318945)">  <path stroke-linecap="round" stroke-width="1px" stroke-dasharray="none" stroke-miterlimit="4" clip-rule="evenodd" stroke-opacity="1" stroke-linejoin="round" stroke="none" fill="#000000" fill-opacity="1" fill-rule="nonzero" d="M27.243,44.441L13.246,51.812C13.288,51.79,13.32,51.793,13.344,51.81C13.368,51.828,13.379,51.857,13.374,51.886L16.045,36.279C16.247,35.048,15.839,33.81,14.954,32.951L3.625,21.986C3.649,22.009,3.656,22.04,3.647,22.068C3.638,22.097,3.613,22.117,3.584,22.121L19.202,19.848C20.422,19.679,21.49,18.905,22.036,17.785L28.973,3.599C28.956,3.634,28.929,3.651,28.899,3.651C28.869,3.651,28.842,3.634,28.829,3.608L35.763,17.787C36.333,18.902,37.371,19.655,38.573,19.845L54.207,22.12C54.269,22.129,54.333,22.135,54.396,22.138C54.365,22.137,54.338,22.117,54.326,22.088C54.315,22.06,54.322,22.027,54.344,22.005L43.033,33.021C42.148,33.902,41.753,35.138,41.961,36.35L44.632,51.958C44.624,51.908,44.634,51.886,44.652,51.872C44.67,51.859,44.695,51.857,44.715,51.867L30.746,44.51L29.853,46.206L30.8,44.54C29.733,43.933,28.439,43.881,27.326,44.4L27.243,44.441ZM29.029,47.832L28.136,46.137L28.946,47.874C28.933,47.88,28.918,47.879,28.906,47.872L28.96,47.902L42.957,55.273C44.248,55.926,45.762,55.805,46.906,54.973C48.051,54.14,48.633,52.737,48.415,51.339L45.739,35.701C45.742,35.719,45.736,35.739,45.722,35.753L57.034,24.736C58.105,23.67,58.439,22.095,57.902,20.706C57.365,19.317,56.057,18.376,54.569,18.309L54.483,20.224L54.759,18.327L39.148,16.055C39.18,16.06,39.187,16.065,39.191,16.072L32.269,1.916C31.631,0.628,30.327,-0.182,28.899,-0.182C27.471,-0.182,26.167,0.628,25.534,1.907L18.592,16.104C18.605,16.077,18.632,16.057,18.664,16.053L3.04,18.327C1.628,18.526,0.447,19.518,0.003,20.88C-0.441,22.243,-0.071,23.739,0.957,24.738L12.285,35.702C12.268,35.685,12.261,35.665,12.265,35.646L9.596,51.242C9.357,52.647,9.932,54.063,11.079,54.903C12.227,55.744,13.751,55.863,15.016,55.212L29.029,47.832Z"/>
</g>
  <g id="Heavy-S" transform="matrix(1.0,0.0,0.0,1.0,2609.3511787810603,633.018435318945)">  <path fill-opacity="1" fill="#000000" stroke-linejoin="round" stroke-dasharray="none" stroke-opacity="1" stroke-width="1px" clip-rule="evenodd" stroke-miterlimit="4" stroke="none" fill-rule="nonzero" stroke-linecap="round" d="M27.341,44.627L13.343,51.998C13.313,52.013,13.26,52.009,13.22,51.98C13.179,51.95,13.159,51.9,13.168,51.851L15.838,36.243C16.029,35.082,15.643,33.913,14.808,33.101L3.479,22.137C3.445,22.104,3.432,22.051,3.448,22.003C3.463,21.955,3.505,21.921,3.554,21.914L19.172,19.64C20.324,19.481,21.332,18.75,21.848,17.693L28.785,3.507C28.803,3.47,28.849,3.441,28.899,3.441C28.949,3.441,28.995,3.47,29.017,3.515L35.952,17.695C36.489,18.746,37.47,19.458,38.606,19.637L54.237,21.913C54.293,21.921,54.349,21.926,54.405,21.929C54.458,21.931,54.503,21.964,54.522,22.013C54.541,22.062,54.529,22.117,54.492,22.154L43.18,33.172C42.344,34.002,41.971,35.17,42.168,36.314L44.839,51.923C44.844,51.953,44.821,52.009,44.775,52.042C44.73,52.075,44.67,52.08,44.621,52.055L30.648,44.696L29.853,46.206L30.697,44.722C29.689,44.149,28.466,44.1,27.415,44.59L27.341,44.627ZM28.931,47.647L28.136,46.137L28.857,47.684C28.906,47.661,28.963,47.663,29.01,47.69L29.058,47.716L43.055,55.088C44.272,55.704,45.702,55.589,46.783,54.803C47.864,54.017,48.414,52.692,48.208,51.372L45.533,35.737C45.524,35.687,45.54,35.639,45.574,35.605L56.888,24.586C57.897,23.58,58.213,22.093,57.706,20.781C57.199,19.47,55.965,18.582,54.56,18.519L54.483,20.224L54.728,18.535L39.118,16.263C39.081,16.257,39.031,16.22,39.004,16.168L32.08,2.008C31.478,0.792,30.247,0.028,28.899,0.028C27.551,0.028,26.32,0.792,25.722,2L18.78,16.196C18.763,16.232,18.73,16.256,18.692,16.261L3.07,18.535C1.737,18.723,0.622,19.659,0.202,20.945C-0.217,22.232,0.132,23.645,1.103,24.587L12.431,35.551C12.463,35.583,12.48,35.631,12.472,35.68L9.803,51.278C9.578,52.604,10.12,53.941,11.203,54.734C12.287,55.527,13.726,55.64,14.92,55.026L28.931,47.647Z"/>
</g>
  <g id="Bold-S" transform="matrix(1.0,0.0,0.0,1.0,2312.6411787810603,633.018435318945)">  <path fill-rule="nonzero" fill-opacity="1" stroke-width="1px" fill="#000000" stroke-linecap="round" stroke-dasharray="none" stroke-linejoin="round" clip-rule="evenodd" stroke-miterlimit="4" stroke-opacity="1" stroke="none" d="M27.438,44.812L13.441,52.184C13.339,52.236,13.2,52.226,13.096,52.149C12.991,52.073,12.939,51.944,12.961,51.816L15.631,36.208C15.81,35.116,15.448,34.016,14.662,33.252L3.333,22.287C3.241,22.198,3.208,22.062,3.248,21.938C3.289,21.814,3.396,21.724,3.525,21.706L19.141,19.433C20.226,19.283,21.174,18.596,21.659,17.601L28.596,3.415C28.651,3.305,28.769,3.231,28.899,3.231C29.029,3.231,29.148,3.305,29.205,3.421L36.14,17.603C36.646,18.591,37.569,19.261,38.639,19.43L54.267,21.705C54.316,21.712,54.365,21.717,54.415,21.719C54.55,21.725,54.669,21.81,54.718,21.937C54.767,22.064,54.737,22.207,54.64,22.302L43.326,33.322C42.541,34.103,42.19,35.202,42.375,36.278L45.046,51.887C45.063,51.999,45.008,52.133,44.899,52.212C44.79,52.291,44.646,52.302,44.526,52.242L30.551,44.882C29.644,44.365,28.493,44.319,27.503,44.78L27.438,44.812ZM28.833,47.461L28.136,46.137L28.768,47.493C28.879,47.442,29.007,47.447,29.113,47.507L43.153,54.902C44.297,55.481,45.642,55.372,46.659,54.633C47.677,53.893,48.194,52.646,48,51.404L45.326,35.772C45.306,35.656,45.343,35.538,45.426,35.456L56.741,24.435C57.69,23.49,57.987,22.091,57.51,20.857C57.033,19.623,55.872,18.788,54.55,18.728L54.483,20.224L54.698,18.742L39.088,16.47C38.982,16.453,38.875,16.375,38.817,16.263L31.892,2.1C31.326,0.957,30.167,0.238,28.899,0.238C27.631,0.238,26.472,0.957,25.91,2.093L18.969,16.288C18.921,16.387,18.828,16.454,18.721,16.469L3.1,18.742C1.846,18.92,0.796,19.8,0.402,21.01C0.007,22.221,0.336,23.55,1.249,24.437L12.577,35.4C12.659,35.48,12.698,35.598,12.679,35.713L10.01,51.313C9.798,52.56,10.308,53.818,11.327,54.565C12.347,55.311,13.7,55.417,14.824,54.839L28.833,47.461Z"/>
</g>
  <g id="Semibold-S" transform="matrix(1.0,0.0,0.0,1.0,2015.9311787810605,633.018435318945)">  <path fill="#000000" stroke-opacity="1" stroke-dasharray="none" stroke-linecap="round" stroke-width="1px" fill-rule="nonzero" stroke-linejoin="round" stroke-miterlimit="4" fill-opacity="1" clip-rule="evenodd" stroke="none" d="M27.536,44.998L13.539,52.369C13.364,52.459,13.14,52.442,12.972,52.318C12.803,52.195,12.719,51.987,12.754,51.781L15.425,36.172C15.592,35.149,15.252,34.118,14.515,33.402L3.187,22.438C3.038,22.293,2.983,22.073,3.049,21.873C3.114,21.673,3.287,21.527,3.496,21.498L19.111,19.225C20.128,19.085,21.016,18.441,21.47,17.509L28.408,3.323C28.498,3.14,28.689,3.021,28.899,3.021C29.109,3.021,29.3,3.14,29.393,3.328L36.329,17.511C36.802,18.436,37.668,19.064,38.671,19.223L54.297,21.497C54.339,21.503,54.382,21.507,54.424,21.509C54.643,21.519,54.835,21.657,54.914,21.861C54.993,22.066,54.944,22.297,54.789,22.451L43.473,33.472C42.737,34.204,42.408,35.234,42.582,36.243L45.253,51.852C45.283,52.044,45.195,52.256,45.022,52.382C44.85,52.507,44.621,52.525,44.431,52.429L30.453,45.067C29.599,44.581,28.52,44.538,27.592,44.97L27.536,44.998ZM28.736,47.275L28.136,46.137L28.68,47.303C28.852,47.223,29.052,47.231,29.217,47.325L43.251,54.716C44.321,55.258,45.583,55.156,46.536,54.463C47.49,53.77,47.975,52.601,47.793,51.436L45.119,35.808C45.087,35.624,45.147,35.438,45.278,35.307L56.595,24.285C57.483,23.4,57.762,22.089,57.314,20.933C56.867,19.777,55.779,18.994,54.541,18.938L54.483,20.224L54.668,18.95L39.058,16.678C38.883,16.65,38.718,16.531,38.63,16.359L31.703,2.192C31.173,1.121,30.087,0.447,28.899,0.447C27.711,0.447,26.625,1.121,26.098,2.187L19.157,16.38C19.079,16.542,18.926,16.652,18.75,16.677L3.13,18.95C1.954,19.116,0.971,19.941,0.601,21.075C0.232,22.21,0.54,23.455,1.396,24.286L12.723,35.25C12.854,35.377,12.916,35.564,12.886,35.747L10.216,51.349C10.018,52.517,10.496,53.696,11.451,54.395C12.407,55.095,13.675,55.194,14.728,54.653L28.736,47.275Z"/>
</g>
  <g id="Medium-S" transform="matrix(1.0,0.0,0.0,1.0,1719.2211787810604,633.018435318945)">  <path stroke-linejoin="round" stroke-dasharray="none" fill-rule="nonzero" stroke-miterlimit="4" stroke-linecap="round" stroke="none" stroke-opacity="1" stroke-width="1px" fill="#000000" fill-opacity="1" clip-rule="evenodd" d="M27.634,45.184L13.637,52.555C13.389,52.682,13.08,52.658,12.848,52.488C12.615,52.317,12.499,52.03,12.547,51.746L15.218,36.137C15.374,35.183,15.057,34.221,14.369,33.553L3.041,22.589C2.834,22.388,2.759,22.084,2.849,21.808C2.939,21.532,3.179,21.331,3.466,21.29L19.081,19.017C20.03,18.886,20.858,18.286,21.282,17.418L28.219,3.231C28.345,2.976,28.61,2.812,28.899,2.812C29.189,2.812,29.453,2.976,29.582,3.235L36.517,17.419C36.958,18.28,37.768,18.867,38.704,19.015L54.327,21.289L54.434,21.3C54.736,21.313,55.001,21.504,55.109,21.786C55.218,22.067,55.151,22.387,54.937,22.6L43.619,33.623C42.934,34.304,42.627,35.266,42.789,36.207L45.46,51.817C45.502,52.09,45.382,52.379,45.146,52.551C44.909,52.723,44.597,52.748,44.336,52.616L30.355,45.253C29.555,44.797,28.547,44.757,27.681,45.16L27.634,45.184ZM28.638,47.09L28.136,46.137L28.591,47.113C28.825,47.004,29.097,47.015,29.321,47.142L43.348,54.531C44.346,55.035,45.523,54.94,46.413,54.294C47.302,53.646,47.755,52.556,47.586,51.469L44.912,35.843C44.869,35.592,44.95,35.337,45.13,35.158L56.448,24.135C57.276,23.31,57.536,22.087,57.119,21.009C56.702,19.93,55.687,19.2,54.531,19.148L54.483,20.224L54.638,19.158L39.027,16.886C38.784,16.847,38.562,16.686,38.444,16.455L31.514,2.284C31.02,1.286,30.008,0.657,28.899,0.657C27.79,0.657,26.778,1.286,26.286,2.28L19.346,16.472C19.237,16.696,19.024,16.851,18.778,16.884L3.16,19.158C2.063,19.313,1.146,20.082,0.801,21.14C0.456,22.198,0.744,23.36,1.542,24.136L12.869,35.099C13.05,35.275,13.134,35.53,13.093,35.781L10.423,51.384C10.238,52.474,10.684,53.574,11.575,54.226C12.467,54.878,13.65,54.971,14.632,54.466L28.638,47.09Z"/>
</g>
  <g id="Regular-S" transform="matrix(1.0,0.0,0.0,1.0,1422.5111787810604,633.018435318945)">  <path fill-rule="nonzero" stroke-linejoin="round" stroke="none" fill="#000000" stroke-width="1px" stroke-miterlimit="4" stroke-linecap="round" fill-opacity="1" stroke-opacity="1" clip-rule="evenodd" stroke-dasharray="none" d="M27.732,45.369L13.735,52.741C13.415,52.905,13.021,52.874,12.724,52.657C12.427,52.44,12.278,52.073,12.34,51.711L15.011,36.102C15.156,35.217,14.861,34.324,14.223,33.703L2.895,22.74C2.63,22.483,2.535,22.095,2.65,21.743C2.764,21.391,3.07,21.134,3.437,21.082L19.051,18.81C19.932,18.688,20.7,18.131,21.093,17.326L28.03,3.138C28.192,2.811,28.53,2.602,28.899,2.602C29.268,2.602,29.606,2.811,29.77,3.142L36.706,17.326C37.114,18.125,37.867,18.67,38.737,18.808L54.358,21.082L54.443,21.09C54.828,21.107,55.166,21.351,55.305,21.71C55.444,22.069,55.358,22.477,55.085,22.749L43.766,33.773C43.13,34.405,42.845,35.297,42.996,36.172L45.667,51.781C45.722,52.135,45.569,52.503,45.269,52.721C44.969,52.939,44.572,52.971,44.242,52.804L30.257,45.439C29.51,45.013,28.574,44.976,27.769,45.351ZM28.502,46.923C28.798,46.785,29.141,46.799,29.424,46.96L43.446,54.345C44.37,54.812,45.463,54.724,46.289,54.124C47.115,53.523,47.536,52.51,47.378,51.501L44.705,35.878C44.65,35.56,44.754,35.236,44.982,35.009L56.302,23.984C57.069,23.22,57.31,22.085,56.923,21.084C56.536,20.083,55.594,19.406,54.522,19.357L54.483,20.224L54.608,19.365L38.997,17.093C38.685,17.044,38.406,16.841,38.257,16.55L31.326,2.376C30.868,1.451,29.928,0.867,28.899,0.867C27.87,0.867,26.931,1.451,26.474,2.373L19.534,16.564C19.395,16.851,19.122,17.049,18.807,17.092L3.191,19.365C2.172,19.509,1.321,20.224,1.001,21.205C0.68,22.187,0.947,23.266,1.688,23.985L13.015,34.948C13.245,35.172,13.352,35.496,13.3,35.815L10.63,51.419C10.458,52.431,10.872,53.451,11.699,54.057C12.526,54.662,13.624,54.748,14.535,54.279L28.54,46.904Z"/>
</g>
  <g id="Light-S" transform="matrix(1.0,0.0,0.0,1.0,1125.8011787810606,633.018435318945)">  <path stroke-opacity="1" stroke-miterlimit="4" stroke-width="1px" stroke="none" fill="#000000" stroke-dasharray="none" clip-rule="evenodd" stroke-linecap="round" fill-rule="nonzero" stroke-linejoin="round" fill-opacity="1" d="M27.799,45.497L13.802,52.869C13.432,53.059,12.979,53.023,12.638,52.774C12.297,52.524,12.127,52.103,12.197,51.687L14.868,36.077C15.005,35.24,14.726,34.394,14.122,33.807L2.795,22.844C2.49,22.548,2.38,22.103,2.512,21.698C2.644,21.293,2.995,20.999,3.417,20.939L19.03,18.667C19.865,18.551,20.591,18.024,20.963,17.262L27.901,3.075C28.087,2.698,28.475,2.457,28.899,2.457C29.323,2.457,29.711,2.698,29.899,3.078L36.836,17.263C37.222,18.018,37.935,18.535,38.759,18.665L54.379,20.939L54.45,20.946C54.892,20.966,55.28,21.245,55.44,21.658C55.6,22.071,55.5,22.539,55.187,22.851L43.866,33.877C43.265,34.474,42.996,35.319,43.138,36.147L45.809,51.757C45.873,52.166,45.698,52.588,45.354,52.838C45.01,53.088,44.556,53.124,44.176,52.933L30.19,45.567C29.479,45.162,28.593,45.126,27.831,45.482ZM28.441,46.792C28.779,46.634,29.172,46.65,29.496,46.834L43.514,54.217C44.387,54.659,45.422,54.576,46.204,54.007C46.986,53.438,47.385,52.479,47.235,51.523L44.563,35.903C44.5,35.538,44.618,35.167,44.88,34.907L56.201,23.881C56.927,23.158,57.155,22.084,56.788,21.136C56.422,20.189,55.53,19.548,54.515,19.502L54.587,19.508L38.976,17.236C38.617,17.179,38.298,16.948,38.128,16.616L31.196,2.44C30.763,1.564,29.873,1.012,28.899,1.012C27.925,1.012,27.036,1.564,26.604,2.437L19.664,16.628C19.503,16.958,19.189,17.185,18.827,17.236L3.211,19.508C2.247,19.645,1.441,20.321,1.138,21.25C0.835,22.18,1.087,23.2,1.789,23.881L13.116,34.844C13.38,35.101,13.503,35.473,13.443,35.839L10.773,51.444C10.61,52.401,11.002,53.367,11.785,53.94C12.568,54.513,13.607,54.595,14.469,54.151L28.473,46.776Z"/>
</g>
  <g id="Thin-S" transform="matrix(1.0,0.0,0.0,1.0,829.0911787810604,633.018435318945)">  <path clip-rule="evenodd" stroke-opacity="1" stroke-width="1px" fill="#000000" fill-opacity="1" stroke="none" stroke-linejoin="round" fill-rule="nonzero" stroke-dasharray="none" stroke-miterlimit="4" stroke-linecap="round" d="M27.867,45.625L13.869,52.997C13.45,53.212,12.938,53.172,12.553,52.89C12.168,52.608,11.975,52.133,12.055,51.662L14.726,36.053C14.855,35.263,14.592,34.465,14.021,33.91L2.694,22.948C2.35,22.613,2.226,22.111,2.375,21.653C2.524,21.196,2.92,20.863,3.396,20.796L19.009,18.524C19.797,18.415,20.483,17.918,20.833,17.199L27.771,3.011C27.982,2.584,28.42,2.313,28.899,2.313C29.378,2.313,29.816,2.584,30.029,3.014L36.965,17.199C37.33,17.911,38.003,18.399,38.782,18.523L54.399,20.796L54.456,20.801C54.956,20.824,55.395,21.139,55.575,21.606C55.755,22.072,55.643,22.601,55.289,22.953L43.967,33.98C43.401,34.543,43.146,35.341,43.28,36.123L45.951,51.732C46.024,52.198,45.827,52.673,45.439,52.955C45.052,53.237,44.539,53.278,44.111,53.062L30.122,45.694C29.449,45.311,28.611,45.277,27.892,45.613ZM28.38,46.661C28.76,46.483,29.203,46.501,29.567,46.709L43.581,54.089C44.404,54.505,45.381,54.427,46.119,53.89C46.858,53.353,47.233,52.448,47.093,51.546L44.42,35.927C44.349,35.516,44.483,35.098,44.778,34.804L56.1,23.777C56.784,23.096,56.999,22.083,56.653,21.189C56.308,20.295,55.466,19.689,54.509,19.646L54.566,19.651L38.956,17.379C38.549,17.315,38.191,17.055,37.999,16.682L31.066,2.503C30.657,1.677,29.818,1.156,28.899,1.156C27.98,1.156,27.141,1.677,26.733,2.501L19.794,16.691C19.612,17.065,19.257,17.322,18.847,17.379L3.232,19.651C2.321,19.78,1.561,20.418,1.275,21.295C0.99,22.172,1.228,23.135,1.889,23.778L13.216,34.74C13.515,35.031,13.653,35.45,13.585,35.862L10.915,51.468C10.762,52.371,11.131,53.283,11.87,53.823C12.609,54.364,13.589,54.441,14.403,54.022L28.405,46.648Z"/>
</g>
  <g id="Ultralight-S" transform="matrix(1.0,0.0,0.0,1.0,532.3811787810604,633.018435318945)">  <path fill-opacity="1" stroke-opacity="1" fill="#000000" stroke-miterlimit="4" fill-rule="nonzero" stroke-linecap="round" stroke-linejoin="round" clip-rule="evenodd" stroke-dasharray="none" stroke-width="1px" stroke="none" d="M27.934,45.753L13.937,53.125C13.467,53.366,12.897,53.321,12.468,53.007C12.038,52.693,11.823,52.163,11.912,51.638L14.583,36.028C14.705,35.287,14.457,34.536,13.921,34.014L2.594,23.051C2.21,22.678,2.071,22.118,2.237,21.609C2.404,21.099,2.845,20.728,3.376,20.653L18.988,18.381C19.73,18.278,20.374,17.811,20.703,17.135L27.641,2.948C27.877,2.471,28.365,2.168,28.899,2.168C29.433,2.168,29.921,2.471,30.158,2.95L37.095,17.136C37.437,17.804,38.071,18.264,38.805,18.38L54.42,20.653C55.02,20.682,55.509,21.034,55.71,21.554C55.911,22.073,55.786,22.663,55.391,23.056L44.068,34.084C43.536,34.613,43.296,35.363,43.423,36.098L46.094,51.708C46.175,52.229,45.956,52.758,45.524,53.072C45.093,53.385,44.522,53.431,44.046,53.191L30.055,45.822C29.418,45.46,28.63,45.428,27.953,45.744ZM28.319,46.53C28.742,46.333,29.233,46.353,29.639,46.583L43.648,53.961C44.421,54.352,45.34,54.278,46.034,53.773C46.729,53.268,47.082,52.416,46.95,51.568L44.278,35.952C44.199,35.495,44.348,35.028,44.676,34.702L55.999,23.674C56.641,23.034,56.844,22.081,56.518,21.241C56.194,20.4,55.403,19.831,54.502,19.79L38.935,17.522C38.48,17.45,38.083,17.162,37.871,16.748L30.936,2.567C30.552,1.791,29.763,1.301,28.899,1.301C28.035,1.301,27.246,1.791,26.863,2.565L19.924,16.755C19.721,17.171,19.325,17.459,18.867,17.522L3.253,19.795C2.396,19.916,1.682,20.515,1.413,21.34C1.144,22.164,1.368,23.07,1.99,23.674L13.317,34.636C13.649,34.96,13.803,35.426,13.728,35.885L11.058,51.492C10.913,52.341,11.261,53.198,11.955,53.707C12.65,54.215,13.572,54.287,14.337,53.894L28.338,46.52Z"/>
</g>
 </g>
</svg>
